<svg width="30" height="30" viewBox="0 0 30 30" fill="none" xmlns="http://www.w3.org/2000/svg">
<path d="M21.3125 23.125C21.5625 23.375 21.625 23.6667 21.5 24C21.3958 24.3333 21.1771 24.5521 20.8438 24.6562C20.5104 24.7604 20.2083 24.6667 19.9375 24.375L8.6875 11.875C8.4375 11.6042 8.375 11.3021 8.5 10.9687C8.625 10.6354 8.84375 10.4271 9.15625 10.3437C9.48958 10.2396 9.79167 10.3333 10.0625 10.625L21.3125 23.125ZM19.9375 10.625C20.1875 10.3333 20.4792 10.2396 20.8125 10.3437C21.1667 10.4271 21.4063 10.6354 21.5313 10.9687C21.6563 11.2812 21.5833 11.5833 21.3125 11.875L10.0625 24.375C9.83333 24.6458 9.54167 24.7396 9.1875 24.6562C8.83333 24.5521 8.59375 24.3437 8.46875 24.0312C8.34375 23.7187 8.41667 23.4167 8.6875 23.125L19.9375 10.625Z" fill="#181818"/>
</svg>
