<svg width="24" height="24" viewBox="0 0 24 24" fill="none" xmlns="http://www.w3.org/2000/svg">
<path d="M3.675 21.85C3.375 21.9333 3.09167 21.9083 2.825 21.775C2.55833 21.6417 2.35833 21.4417 2.225 21.175C2.09167 20.9083 2.06667 20.625 2.15 20.325L3.1 16.475L15.85 3.75C16.25 3.35 16.7083 3.08333 17.225 2.95C17.7417 2.8 18.2583 2.8 18.775 2.95C19.2917 3.08333 19.75 3.35 20.15 3.75L20.25 3.85C20.65 4.25 20.9167 4.70833 21.05 5.225C21.2 5.74167 21.2 6.25833 21.05 6.775C20.9167 7.29167 20.65 7.75 20.25 8.15L7.525 20.9L3.675 21.85ZM4.075 20.85C4.09167 20.8 4.09167 20.725 4.075 20.625C4.075 20.525 4.05833 20.4 4.025 20.25C3.99167 20.0833 3.94167 19.9167 3.875 19.75L6.475 19.1L18.85 6.75C19.1167 6.48333 19.25 6.23333 19.25 6C19.25 5.76667 19.1167 5.51667 18.85 5.25L18.75 5.15C18.4833 4.88333 18.2333 4.75 18 4.75C17.7667 4.75 17.5167 4.88333 17.25 5.15L4.9 17.525L4.075 20.85ZM14.3 6.7L15.7 5.3L18.7 8.3L17.3 9.7L14.3 6.7Z" fill="#3D3D40"/>
</svg>
