<svg width="20" height="20" viewBox="0 0 20 20" fill="none" xmlns="http://www.w3.org/2000/svg">
<circle cx="10" cy="10" r="10" fill="#66BFB7"/>
<path d="M6.25 14.8437C5.83333 14.8437 5.44271 14.7396 5.07813 14.5312C4.72396 14.3125 4.4375 14.026 4.21875 13.6719C4.01042 13.3073 3.90625 12.9167 3.90625 12.5V7.5C3.90625 7.07292 4.01042 6.68229 4.21875 6.32812C4.4375 5.96354 4.72396 5.67708 5.07813 5.46875C5.44271 5.26042 5.83333 5.15625 6.25 5.15625H7.3125L8.39063 4.07812C8.44271 4.02604 8.50521 3.98437 8.57813 3.95312C8.65104 3.92187 8.72396 3.90625 8.79688 3.90625H11.2031C11.276 3.90625 11.349 3.92187 11.4219 3.95312C11.4948 3.98437 11.5573 4.02604 11.6094 4.07812L12.7031 5.15625H13.75C14.1771 5.15625 14.5677 5.26042 14.9219 5.46875C15.2865 5.67708 15.5729 5.96354 15.7813 6.32812C15.9896 6.68229 16.0938 7.07292 16.0938 7.5V12.5C16.0938 12.9167 15.9896 13.3073 15.7813 13.6719C15.5729 14.026 15.2865 14.3125 14.9219 14.5312C14.5677 14.7396 14.1771 14.8437 13.75 14.8437H6.25ZM13.75 13.9062C14.1771 13.9062 14.5156 13.776 14.7656 13.5156C15.026 13.2552 15.1563 12.9167 15.1563 12.5V7.5C15.1563 7.07292 15.026 6.73437 14.7656 6.48437C14.5156 6.22396 14.1771 6.09375 13.75 6.09375H12.3125L10.9531 4.73437C10.9323 4.71354 10.974 4.72917 11.0781 4.78125C11.1823 4.82292 11.224 4.84375 11.2031 4.84375H8.79688C8.77604 4.84375 8.81771 4.82292 8.92188 4.78125C9.02604 4.72917 9.06771 4.71354 9.04688 4.73437L7.70313 6.09375H6.25C5.83333 6.09375 5.49479 6.22396 5.23438 6.48437C4.97396 6.73437 4.84375 7.07292 4.84375 7.5V12.5C4.84375 12.9167 4.97396 13.2552 5.23438 13.5156C5.49479 13.776 5.83333 13.9062 6.25 13.9062H13.75ZM10 12.9687C9.45833 12.9687 8.95833 12.8385 8.5 12.5781C8.05208 12.3073 7.69271 11.9479 7.42188 11.5C7.16146 11.0417 7.03125 10.5417 7.03125 10C7.03125 9.45833 7.16146 8.96354 7.42188 8.51562C7.69271 8.05729 8.05208 7.69792 8.5 7.4375C8.95833 7.16667 9.45833 7.03125 10 7.03125C10.5417 7.03125 11.0365 7.16667 11.4844 7.4375C11.9427 7.69792 12.3021 8.05729 12.5625 8.51562C12.8333 8.96354 12.9688 9.45833 12.9688 10C12.9688 10.5417 12.8333 11.0417 12.5625 11.5C12.3021 11.9479 11.9427 12.3073 11.4844 12.5781C11.0365 12.8385 10.5417 12.9687 10 12.9687ZM10 12.0312C10.3958 12.0312 10.7448 11.9479 11.0469 11.7812C11.3594 11.6042 11.599 11.3646 11.7656 11.0625C11.9427 10.75 12.0313 10.3958 12.0313 10C12.0313 9.60417 11.9427 9.25521 11.7656 8.95312C11.599 8.64062 11.3594 8.40104 11.0469 8.23437C10.7448 8.05729 10.3958 7.96875 10 7.96875C9.60417 7.96875 9.25 8.05729 8.9375 8.23437C8.63542 8.40104 8.39583 8.64062 8.21875 8.95312C8.05208 9.25521 7.96875 9.60417 7.96875 10C7.96875 10.3958 8.05208 10.75 8.21875 11.0625C8.39583 11.3646 8.63542 11.6042 8.9375 11.7812C9.25 11.9479 9.60417 12.0312 10 12.0312Z" fill="white"/>
</svg>
