<svg width="30" height="30" viewBox="0 0 30 30" fill="none" xmlns="http://www.w3.org/2000/svg">
<path d="M10.375 7.125C10 6.75 9.88542 6.34375 10.0312 5.90625C10.1771 5.48958 10.4792 5.20833 10.9375 5.0625C11.375 4.91667 11.7708 5.02083 12.125 5.375L20.9062 14.125C21.1771 14.4167 21.3125 14.7083 21.3125 15C21.3125 15.3125 21.1771 15.6042 20.9062 15.875L12.125 24.625C11.7708 24.9792 11.375 25.0833 10.9375 24.9375C10.5 24.7917 10.2083 24.5 10.0625 24.0625C9.89583 23.6458 10 23.25 10.375 22.875L18.2187 15L10.375 7.125Z" fill="#C1D1D1"/>
</svg>
