<svg width="10" height="21" viewBox="0 0 10 21" fill="none" xmlns="http://www.w3.org/2000/svg">
<path d="M6.66667 10.5C6.66667 10.9583 6.50694 11.3542 6.1875 11.6875C5.86806 12.0069 5.47222 12.1667 5 12.1667C4.54167 12.1667 4.14583 12.0069 3.8125 11.6875C3.49306 11.3542 3.33333 10.9583 3.33333 10.5C3.33333 10.0278 3.49306 9.63194 3.8125 9.3125C4.14583 8.99305 4.54167 8.83333 5 8.83333C5.47222 8.83333 5.86806 8.99305 6.1875 9.3125C6.50694 9.63194 6.66667 10.0278 6.66667 10.5ZM6.66667 4.66667C6.66667 5.125 6.50694 5.52083 6.1875 5.85417C5.86806 6.17361 5.47222 6.33333 5 6.33333C4.54167 6.33333 4.14583 6.17361 3.8125 5.85417C3.49306 5.52083 3.33333 5.125 3.33333 4.66667C3.33333 4.19444 3.49306 3.79861 3.8125 3.47917C4.14583 3.15972 4.54167 3 5 3C5.47222 3 5.86806 3.15972 6.1875 3.47917C6.50694 3.79861 6.66667 4.19444 6.66667 4.66667ZM6.66667 16.3333C6.66667 16.7917 6.50694 17.1875 6.1875 17.5208C5.86806 17.8403 5.47222 18 5 18C4.54167 18 4.14583 17.8403 3.8125 17.5208C3.49306 17.1875 3.33333 16.7917 3.33333 16.3333C3.33333 15.8611 3.49306 15.4653 3.8125 15.1458C4.14583 14.8264 4.54167 14.6667 5 14.6667C5.47222 14.6667 5.86806 14.8264 6.1875 15.1458C6.50694 15.4653 6.66667 15.8611 6.66667 16.3333Z" fill="#3D4946"/>
</svg>
