<svg width="28" height="28" viewBox="0 0 28 28" fill="none" xmlns="http://www.w3.org/2000/svg">
<path d="M12.8333 24.5C12.3472 24.5 11.9292 24.3347 11.5792 24.0042C11.2486 23.6542 11.0833 23.2361 11.0833 22.75V13.6208C11.0833 13.5431 11.1125 13.5917 11.1708 13.7667C11.2486 13.9417 11.2875 14.0486 11.2875 14.0875L4.1125 6.9125C3.68472 6.48472 3.47083 5.99861 3.47083 5.45417C3.49028 4.90972 3.68472 4.45278 4.05417 4.08333C4.44306 3.69444 4.93889 3.5 5.54167 3.5H22.4583C23.0611 3.5 23.5472 3.69444 23.9167 4.08333C24.3056 4.45278 24.5 4.90972 24.5 5.45417C24.5194 5.99861 24.3153 6.48472 23.8875 6.9125L16.7125 14.0875C16.7125 14.0486 16.7417 13.9417 16.8 13.7667C16.8778 13.5917 16.9167 13.5431 16.9167 13.6208V22.75C16.9167 23.2361 16.7417 23.6542 16.3917 24.0042C16.0611 24.3347 15.6528 24.5 15.1667 24.5H12.8333ZM15.1667 22.1667C15.3028 22.1667 15.3125 22.2444 15.1958 22.4C15.0986 22.5556 14.9722 22.6917 14.8167 22.8083C14.6611 22.9056 14.5833 22.8861 14.5833 22.75V13.6208C14.5833 13.4069 14.6222 13.2028 14.7 13.0083C14.7972 12.7944 14.9236 12.6097 15.0792 12.4542L22.2542 5.27917C22.3708 5.1625 22.4778 5.15278 22.575 5.25C22.6722 5.34722 22.7111 5.47361 22.6917 5.62917C22.6917 5.76528 22.6139 5.83333 22.4583 5.83333H5.54167C5.38611 5.83333 5.29861 5.76528 5.27917 5.62917C5.27917 5.47361 5.32778 5.34722 5.425 5.25C5.52222 5.15278 5.62917 5.1625 5.74583 5.27917L12.9208 12.4542C13.0958 12.6097 13.2222 12.7944 13.3 13.0083C13.3778 13.2028 13.4167 13.4069 13.4167 13.6208V22.75C13.4167 22.8861 13.3389 22.9056 13.1833 22.8083C13.0278 22.6917 12.8917 22.5556 12.775 22.4C12.6778 22.2444 12.6972 22.1667 12.8333 22.1667H15.1667Z" fill="#3D4946"/>
</svg>
