<svg width="24" height="24" viewBox="0 0 24 24" fill="none" xmlns="http://www.w3.org/2000/svg">
<path d="M3 19C2.58333 19 2.29167 18.8333 2.125 18.5C1.975 18.1667 1.975 17.8333 2.125 17.5C2.29167 17.1667 2.58333 17 3 17H4V10C4 8.55 4.35833 7.21667 5.075 6C5.79167 4.76667 6.75833 3.79167 7.975 3.075C9.20833 2.35833 10.55 2 12 2C13.45 2 14.7833 2.35833 16 3.075C17.2333 3.79167 18.2083 4.76667 18.925 6C19.6417 7.21667 20 8.55 20 10V17H21C21.4167 17 21.7 17.1667 21.85 17.5C22.0167 17.8333 22.0167 18.1667 21.85 18.5C21.7 18.8333 21.4167 19 21 19H3ZM12 23C11.55 23 11.1417 22.8667 10.775 22.6C10.425 22.3167 10.1917 21.9583 10.075 21.525C9.95833 21.0917 10 20.6333 10.2 20.15C10.2 20.1 10.225 20.0667 10.275 20.05C10.325 20.0167 10.375 20 10.425 20H13.6C13.6333 20 13.675 20.0167 13.725 20.05C13.775 20.0667 13.8083 20.1 13.825 20.15C14.0083 20.6333 14.0417 21.0917 13.925 21.525C13.8083 21.9583 13.575 22.3167 13.225 22.6C12.875 22.8667 12.4667 23 12 23ZM18 17V10C18 8.86667 17.7417 7.84167 17.225 6.925C16.7083 6.00833 15.9917 5.29167 15.075 4.775C14.1583 4.25833 13.1333 4 12 4C10.8667 4 9.84167 4.25833 8.925 4.775C8.00833 5.29167 7.29167 6.00833 6.775 6.925C6.25833 7.84167 6 8.86667 6 10V17H18Z" fill="#3D3D40"/>
</svg>
