<svg width="30" height="30" viewBox="0 0 30 30" fill="none" xmlns="http://www.w3.org/2000/svg">
<path d="M5 7.5C5 6.60417 5.21875 5.77083 5.65625 5C6.11458 4.22917 6.72917 3.625 7.5 3.1875C8.27083 2.72917 9.10417 2.5 10 2.5H20C20.8958 2.5 21.7292 2.72917 22.5 3.1875C23.2708 3.625 23.875 4.22917 24.3125 5C24.7708 5.77083 25 6.60417 25 7.5V25.8125C25 26.1667 24.8854 26.4792 24.6563 26.75C24.4479 27.0208 24.1771 27.1979 23.8438 27.2812C23.5104 27.3646 23.1771 27.3437 22.8438 27.2187L15 23.8437L7.15625 27.2187C6.82292 27.3437 6.48958 27.3646 6.15625 27.2812C5.84375 27.1979 5.57292 27.0208 5.34375 26.75C5.11458 26.4792 5 26.1667 5 25.8125V7.5ZM7.5 25.8125C7.5 25.7708 7.48958 25.7396 7.46875 25.7187C7.44792 25.6771 7.42708 25.625 7.40625 25.5625C7.28125 25.375 7.03125 25.0833 6.65625 24.6875L14.5938 21.3125C14.7396 21.2708 14.875 21.25 15 21.25C15.1458 21.25 15.2813 21.2708 15.4063 21.3125L23.3438 24.6875C22.9896 25.0833 22.7396 25.375 22.5938 25.5625C22.5729 25.625 22.5521 25.6771 22.5313 25.7187C22.5104 25.7396 22.5 25.7708 22.5 25.8125V7.5C22.5 6.72916 22.2708 6.125 21.8125 5.6875C21.375 5.22917 20.7708 5 20 5H10C9.22917 5 8.61458 5.22917 8.15625 5.6875C7.71875 6.125 7.5 6.72916 7.5 7.5V25.8125Z" fill="currentColor"/>
</svg>
