<svg width="26" height="26" viewBox="0 0 26 26" fill="none" xmlns="http://www.w3.org/2000/svg">
<path d="M13 25.5C11.0208 25.5 9.13542 25.0417 7.34375 24.125L3.71875 25.0312C3.09375 25.1979 2.54167 25.1875 2.0625 25C1.58333 24.7917 1.23958 24.4479 1.03125 23.9687C0.822917 23.4896 0.802083 22.9375 0.96875 22.3125L1.875 18.6562C0.958333 16.8646 0.5 14.9792 0.5 13C0.5 10.7292 1.0625 8.63542 2.1875 6.71875C3.3125 4.80208 4.82292 3.29167 6.71875 2.1875C8.63542 1.0625 10.7292 0.499999 13 0.499999C15.2708 0.499999 17.3646 1.0625 19.2813 2.1875C21.1979 3.29167 22.7083 4.80208 23.8125 6.71875C24.9375 8.63542 25.5 10.7292 25.5 13C25.5 15.2708 24.9375 17.3646 23.8125 19.2812C22.7083 21.1771 21.1979 22.6875 19.2813 23.8125C17.3646 24.9375 15.2708 25.5 13 25.5ZM3.375 22.9062C3.33333 23.0937 3.22917 23.1042 3.0625 22.9375C2.89583 22.7708 2.89583 22.6667 3.0625 22.625L7.28125 21.5937C7.40625 21.5521 7.53125 21.5417 7.65625 21.5625C7.80208 21.5833 7.9375 21.6354 8.0625 21.7187C8.83333 22.1354 9.625 22.4583 10.4375 22.6875C11.25 22.8958 12.1042 23 13 23C14.875 23 16.5729 22.5625 18.0938 21.6875C19.6146 20.8125 20.8125 19.6146 21.6875 18.0937C22.5625 16.5729 23 14.875 23 13C23 11.125 22.5625 9.42708 21.6875 7.90625C20.8125 6.38542 19.6146 5.1875 18.0938 4.3125C16.5729 3.4375 14.875 3 13 3C11.125 3 9.42708 3.4375 7.90625 4.3125C6.38542 5.1875 5.1875 6.38542 4.3125 7.90625C3.4375 9.42708 3 11.125 3 13C3 13.8958 3.10417 14.75 3.3125 15.5625C3.54167 16.375 3.86458 17.1667 4.28125 17.9375C4.44792 18.1875 4.48958 18.4375 4.40625 18.6875L3.375 22.9062Z" fill="currentColor"/>
</svg>
