<svg width="30" height="30" viewBox="0 0 30 30" fill="none" xmlns="http://www.w3.org/2000/svg">
<path d="M4.59375 27.3125C4.21875 27.4167 3.86458 27.3854 3.53125 27.2187C3.19792 27.0521 2.94792 26.8021 2.78125 26.4687C2.61458 26.1354 2.58333 25.7812 2.6875 25.4062L3.875 20.5937L19.8125 4.6875C20.3125 4.1875 20.8854 3.85417 21.5313 3.6875C22.1771 3.5 22.8229 3.5 23.4688 3.6875C24.1146 3.85417 24.6875 4.1875 25.1875 4.6875L25.3125 4.8125C25.8125 5.3125 26.1458 5.88542 26.3125 6.53125C26.5 7.17708 26.5 7.82292 26.3125 8.46875C26.1458 9.11458 25.8125 9.6875 25.3125 10.1875L9.40625 26.125L4.59375 27.3125ZM5.09375 26.0625C5.11458 26 5.11458 25.9062 5.09375 25.7812C5.09375 25.6562 5.07292 25.5 5.03125 25.3125C4.98958 25.1042 4.92708 24.8958 4.84375 24.6875L8.09375 23.875L23.5625 8.4375C23.8958 8.10417 24.0625 7.79167 24.0625 7.5C24.0625 7.20833 23.8958 6.89583 23.5625 6.5625L23.4375 6.4375C23.1042 6.10417 22.7917 5.9375 22.5 5.9375C22.2083 5.9375 21.8958 6.10417 21.5625 6.4375L6.125 21.9062L5.09375 26.0625ZM17.875 8.375L19.625 6.625L23.375 10.375L21.625 12.125L17.875 8.375Z" fill="currentColor"/>
</svg>
