<svg width="30" height="30" viewBox="0 0 30 30" fill="none" xmlns="http://www.w3.org/2000/svg">
<path d="M8.75 26.25C7.85417 26.25 7.02083 26.0312 6.25 25.5937C5.47917 25.1354 4.86458 24.5208 4.40625 23.75C3.96875 22.9792 3.75 22.1458 3.75 21.25V14.0625C3.75 13.4167 3.875 12.7812 4.125 12.1562C4.39583 11.5312 4.76042 10.9896 5.21875 10.5312L11.4688 4.28125C12.0938 3.63541 12.8333 3.19791 13.6875 2.96875C14.5625 2.73958 15.4271 2.73958 16.2813 2.96875C17.1563 3.19791 17.9063 3.63541 18.5313 4.28125L24.7813 10.5312C25.2396 10.9896 25.5938 11.5312 25.8438 12.1562C26.1146 12.7812 26.25 13.4167 26.25 14.0625V21.25C26.25 22.1458 26.0208 22.9792 25.5625 23.75C25.125 24.5208 24.5208 25.1354 23.75 25.5937C22.9792 26.0312 22.1458 26.25 21.25 26.25H8.75ZM21.25 23.75C21.75 23.75 22.1875 23.6562 22.5625 23.4687C22.9583 23.2604 23.25 22.9687 23.4375 22.5937C23.6458 22.1979 23.75 21.75 23.75 21.25V14.0625C23.75 13.75 23.7083 13.4687 23.625 13.2187C23.5833 13.0521 23.5104 12.8958 23.4063 12.75C23.3229 12.5833 23.1979 12.4271 23.0313 12.2812L16.7813 6.03125C16.2188 5.48958 15.625 5.21875 15 5.21875C14.375 5.21875 13.7813 5.48958 13.2188 6.03125L6.96875 12.2812C6.82292 12.4271 6.69792 12.5833 6.59375 12.75C6.48958 12.8958 6.41667 13.0521 6.375 13.2187C6.29167 13.4687 6.25 13.75 6.25 14.0625V21.25C6.25 21.75 6.34375 22.1979 6.53125 22.5937C6.73958 22.9687 7.03125 23.2604 7.40625 23.4687C7.80208 23.6562 8.25 23.75 8.75 23.75H21.25ZM16.25 25V16.5C16.25 16.2292 16.2083 16.0104 16.125 15.8437C16.0417 15.6562 15.9063 15.5208 15.7188 15.4375C15.5521 15.3542 15.3333 15.3125 15.0625 15.3125H14.9375C14.6667 15.3125 14.4375 15.3542 14.25 15.4375C14.0833 15.5208 13.9583 15.6562 13.875 15.8437C13.7917 16.0104 13.75 16.2292 13.75 16.5V25H11.25V16.5C11.25 15.4792 11.6042 14.6146 12.3125 13.9062C13.0417 13.1771 13.9167 12.8125 14.9375 12.8125H15.0625C16.0833 12.8125 16.9479 13.1771 17.6563 13.9062C18.3854 14.6146 18.75 15.4792 18.75 16.5V25H16.25Z" fill="currentColor"/>
</svg>
