<svg width="30" height="30" viewBox="0 0 30 30" fill="none" xmlns="http://www.w3.org/2000/svg">
<path d="M7.5 27.5C5.9375 27.5 4.70833 27.0625 3.8125 26.1875C2.9375 25.2917 2.5 24.0625 2.5 22.5V22.375C2.5 21.1458 3.07292 20.0729 4.21875 19.1562C5.36458 18.2187 6.88542 17.5 8.78125 17C10.6771 16.5 12.75 16.25 15 16.25C17.25 16.25 19.3229 16.5 21.2188 17C23.1146 17.5 24.6354 18.2187 25.7813 19.1562C26.9271 20.0729 27.5 21.1458 27.5 22.375V22.5C27.5 24.0625 27.0521 25.2917 26.1563 26.1875C25.2813 27.0625 24.0625 27.5 22.5 27.5H7.5ZM5 22.5C5 23.4583 5.17708 24.1146 5.53125 24.4687C5.88542 24.8229 6.54167 25 7.5 25H22.5C23.4583 25 24.1146 24.8229 24.4688 24.4687C24.8229 24.1146 25 23.4583 25 22.5V22.375C25 21.7292 24.5729 21.125 23.7188 20.5625C22.8646 20 21.6771 19.5625 20.1563 19.25C18.6563 18.9167 16.9375 18.75 15 18.75C13.0833 18.75 11.3646 18.9167 9.84375 19.25C8.32292 19.5625 7.13542 20 6.28125 20.5625C5.42708 21.125 5 21.7292 5 22.375V22.5ZM15 15C13.8542 15 12.8021 14.7187 11.8438 14.1562C10.9063 13.5937 10.1563 12.8437 9.59375 11.9062C9.03125 10.9479 8.75 9.89583 8.75 8.75C8.75 7.60417 9.03125 6.55208 9.59375 5.59375C10.1563 4.63542 10.9063 3.88542 11.8438 3.34375C12.8021 2.78125 13.8542 2.5 15 2.5C16.1458 2.5 17.1979 2.78125 18.1563 3.34375C19.1146 3.88542 19.8646 4.63542 20.4063 5.59375C20.9688 6.55208 21.25 7.60417 21.25 8.75C21.25 9.89583 20.9688 10.9479 20.4063 11.9062C19.8646 12.8437 19.1146 13.5937 18.1563 14.1562C17.1979 14.7187 16.1458 15 15 15ZM15 12.5C15.75 12.5 16.4063 12.3437 16.9688 12.0312C17.5313 11.7187 17.9688 11.2812 18.2813 10.7187C18.5938 10.1562 18.75 9.5 18.75 8.75C18.75 8 18.5938 7.34375 18.2813 6.78125C17.9688 6.21875 17.5313 5.78125 16.9688 5.46875C16.4063 5.15625 15.75 5 15 5C14.25 5 13.5938 5.15625 13.0313 5.46875C12.4688 5.78125 12.0313 6.21875 11.7188 6.78125C11.4063 7.34375 11.25 8 11.25 8.75C11.25 9.5 11.4063 10.1562 11.7188 10.7187C12.0313 11.2812 12.4688 11.7187 13.0313 12.0312C13.5938 12.3437 14.25 12.5 15 12.5Z" fill="currentColor"/>
</svg>
