<svg width="14" height="5" viewBox="0 0 14 5" fill="none" xmlns="http://www.w3.org/2000/svg">
<path d="M0.968 3.384C1.272 2.632 1.76 2.032 2.432 1.584C3.104 1.136 3.816 0.92 4.568 0.935999C4.856 0.952 5.2 1.032 5.6 1.176C6 1.304 6.36 1.464 6.68 1.656L8.744 2.928C9 3.104 9.272 3.248 9.56 3.36C9.848 3.456 10.088 3.512 10.28 3.528C10.744 3.544 11.184 3.408 11.6 3.12C12.016 2.832 12.312 2.448 12.488 1.968L13.592 2.4C13.32 3.104 12.864 3.672 12.224 4.104C11.6 4.52 10.928 4.712 10.208 4.68C9.936 4.664 9.608 4.592 9.224 4.464C8.856 4.32 8.504 4.152 8.168 3.96L6.08 2.664C5.824 2.52 5.552 2.4 5.264 2.304C4.976 2.192 4.72 2.128 4.496 2.112C4 2.096 3.52 2.248 3.056 2.568C2.608 2.888 2.272 3.312 2.048 3.84L0.968 3.384Z" fill="#D4D4D4"/>
</svg>
