<svg width="24" height="24" viewBox="0 0 24 24" fill="none" xmlns="http://www.w3.org/2000/svg">
<path d="M7 4.75C6.33333 4.75 5.79167 4.95833 5.375 5.375C4.95833 5.775 4.75 6.31667 4.75 7V7.25H19.25V7C19.25 6.31667 19.0417 5.775 18.625 5.375C18.225 4.95833 17.6833 4.75 17 4.75H7ZM17 3.25C17.6833 3.25 18.3083 3.41667 18.875 3.75C19.4583 4.08333 19.9167 4.54167 20.25 5.125C20.5833 5.69167 20.75 6.31667 20.75 7V8.75H3.25V7C3.25 6.31667 3.41667 5.69167 3.75 5.125C4.08333 4.54167 4.53333 4.08333 5.1 3.75C5.68333 3.41667 6.31667 3.25 7 3.25H17ZM4.75 17C4.75 17.6667 4.95833 18.2083 5.375 18.625C5.79167 19.0417 6.33333 19.25 7 19.25H17C17.6833 19.25 18.225 19.0417 18.625 18.625C19.0417 18.2083 19.25 17.6667 19.25 17V8.75H4.75V17ZM20.75 7.25V17C20.75 17.6833 20.5833 18.3167 20.25 18.9C19.9167 19.4667 19.4583 19.9167 18.875 20.25C18.3083 20.5833 17.6833 20.75 17 20.75H7C6.31667 20.75 5.68333 20.5833 5.1 20.25C4.53333 19.9167 4.08333 19.4667 3.75 18.9C3.41667 18.3167 3.25 17.6833 3.25 17V7.25H20.75ZM6.25 2C6.25 1.68333 6.375 1.46667 6.625 1.35C6.875 1.23333 7.125 1.23333 7.375 1.35C7.625 1.46667 7.75 1.68333 7.75 2V4H6.25V2ZM16.25 4V2C16.25 1.68333 16.375 1.46667 16.625 1.35C16.875 1.23333 17.125 1.23333 17.375 1.35C17.625 1.46667 17.75 1.68333 17.75 2V4H16.25Z" fill="#D5D5D5"/>
</svg>
