<svg width="25" height="24" viewBox="0 0 25 24" fill="none" xmlns="http://www.w3.org/2000/svg">
<path d="M4.5 13C4.08333 13 3.79167 12.8333 3.625 12.5C3.475 12.1667 3.475 11.8333 3.625 11.5C3.79167 11.1667 4.08333 11 4.5 11H20.5C20.9167 11 21.2 11.1667 21.35 11.5C21.5167 11.8333 21.5167 12.1667 21.35 12.5C21.2 12.8333 20.9167 13 20.5 13H4.5ZM11.5 4C11.5 3.58333 11.6667 3.3 12 3.15C12.3333 2.98333 12.6667 2.98333 13 3.15C13.3333 3.3 13.5 3.58333 13.5 4V20C13.5 20.4167 13.3333 20.7083 13 20.875C12.6667 21.025 12.3333 21.025 12 20.875C11.6667 20.7083 11.5 20.4167 11.5 20V4Z" fill="#3D3D40"/>
</svg>
