<svg width="240" height="240" viewBox="0 0 240 240" fill="none" xmlns="http://www.w3.org/2000/svg">
<g id="karma logo">
<path id="Ellipse 2734" d="M152.439 87.5613C174.568 109.691 190.219 133.595 197.821 154.086C205.672 175.25 204.045 189.864 196.955 196.955C189.865 204.045 175.25 205.672 154.086 197.821C133.595 190.219 109.691 174.568 87.5613 152.438C65.4313 130.308 49.7804 106.405 42.1789 85.9137C34.3278 64.7497 35.9551 50.1352 43.0452 43.0452C50.1353 35.9551 64.7497 34.3277 85.9137 42.1789C106.405 49.7804 130.309 65.4313 152.439 87.5613Z" stroke="#00E5BA" stroke-width="15"/>
<path id="Ellipse 2734_2" d="M152.44 152.439C130.31 174.568 106.406 190.219 85.9153 197.821C64.7513 205.672 50.1369 204.045 43.0468 196.955C35.9567 189.865 34.3293 175.25 42.1805 154.086C49.782 133.595 65.4329 109.691 87.5629 87.5613C109.693 65.4313 133.597 49.7804 154.088 42.1789C175.252 34.3278 189.866 35.9551 196.956 43.0452C204.046 50.1353 205.674 64.7497 197.822 85.9137C190.221 106.405 174.57 130.309 152.44 152.439Z" stroke="#00E5BA" stroke-width="15"/>
</g>
</svg>
