<svg width="25" height="24" viewBox="0 0 25 24" fill="none" xmlns="http://www.w3.org/2000/svg">
<path d="M8.5 13C8.08333 13 7.79167 12.8333 7.625 12.5C7.475 12.1667 7.475 11.8333 7.625 11.5C7.79167 11.1667 8.08333 11 8.5 11H16.5C16.9167 11 17.2 11.1667 17.35 11.5C17.5167 11.8333 17.5167 12.1667 17.35 12.5C17.2 12.8333 16.9167 13 16.5 13H8.5ZM12.5 22C10.7 22 9.03333 21.55 7.5 20.65C5.96667 19.75 4.75 18.5333 3.85 17C2.95 15.4667 2.5 13.8 2.5 12C2.5 10.2 2.95 8.53333 3.85 7C4.75 5.45 5.96667 4.23333 7.5 3.35C9.03333 2.45 10.7 2 12.5 2C14.3 2 15.9667 2.45 17.5 3.35C19.05 4.23333 20.2667 5.45 21.15 7C22.05 8.53333 22.5 10.2 22.5 12C22.5 13.8 22.05 15.4667 21.15 17C20.2667 18.5333 19.05 19.75 17.5 20.65C15.9667 21.55 14.3 22 12.5 22ZM12.5 20C13.9833 20 15.3333 19.65 16.55 18.95C17.7833 18.25 18.75 17.2917 19.45 16.075C20.15 14.8417 20.5 13.4833 20.5 12C20.5 10.5167 20.15 9.16667 19.45 7.95C18.75 6.71667 17.7833 5.75 16.55 5.05C15.3333 4.35 13.9833 4 12.5 4C11.0167 4 9.65833 4.35 8.425 5.05C7.20833 5.75 6.25 6.71667 5.55 7.95C4.85 9.16667 4.5 10.5167 4.5 12C4.5 13.4833 4.85 14.8417 5.55 16.075C6.25 17.2917 7.20833 18.25 8.425 18.95C9.65833 19.65 11.0167 20 12.5 20Z" fill="#E46769"/>
</svg>
