<svg width="50" height="50" viewBox="0 0 50 50" fill="none" xmlns="http://www.w3.org/2000/svg">
<path d="M25 45.8333C21.7014 45.8333 18.559 45.0694 15.5729 43.5417L9.53125 45.0521C8.48958 45.3299 7.56944 45.3125 6.77083 45C5.97222 44.6528 5.39931 44.0799 5.05208 43.2812C4.70486 42.4826 4.67014 41.5625 4.94792 40.5208L6.45833 34.4271C4.93056 31.441 4.16667 28.2986 4.16667 25C4.16667 21.2153 5.10417 17.7257 6.97917 14.5312C8.85417 11.3368 11.3715 8.81944 14.5313 6.97916C17.7257 5.10417 21.2153 4.16667 25 4.16667C28.7847 4.16667 32.2743 5.10417 35.4688 6.97916C38.6632 8.81944 41.1806 11.3368 43.0208 14.5312C44.8958 17.7257 45.8333 21.2153 45.8333 25C45.8333 28.7847 44.8958 32.2743 43.0208 35.4687C41.1806 38.6285 38.6632 41.1458 35.4688 43.0208C32.2743 44.8958 28.7847 45.8333 25 45.8333ZM8.95833 41.5104C8.88889 41.8229 8.71528 41.8403 8.4375 41.5625C8.15972 41.2847 8.15972 41.1111 8.4375 41.0417L15.5208 39.3229C15.6944 39.2535 15.8854 39.2361 16.0938 39.2708C16.3368 39.3056 16.5625 39.3924 16.7708 39.5312C18.0556 40.2257 19.375 40.7639 20.7292 41.1458C22.0833 41.4931 23.5069 41.6667 25 41.6667C28.125 41.6667 30.9549 40.9375 33.4896 39.4792C36.0243 38.0208 38.0208 36.0243 39.4792 33.4896C40.9375 30.9549 41.6667 28.125 41.6667 25C41.6667 21.875 40.9375 19.0451 39.4792 16.5104C38.0208 13.9757 36.0243 11.9792 33.4896 10.5208C30.9549 9.0625 28.125 8.33333 25 8.33333C21.875 8.33333 19.0451 9.0625 16.5104 10.5208C13.9757 11.9792 11.9792 13.9757 10.5208 16.5104C9.0625 19.0451 8.33333 21.875 8.33333 25C8.33333 26.4931 8.50694 27.9167 8.85417 29.2708C9.23611 30.625 9.77431 31.9444 10.4688 33.2292C10.7465 33.6458 10.816 34.0625 10.6771 34.4792L8.95833 41.5104ZM17.2917 26.4583C16.7014 25.8681 16.5278 25.2083 16.7708 24.4792C17.0139 23.7153 17.4826 23.2118 18.1771 22.9687C18.9063 22.7257 19.5833 22.9167 20.2083 23.5417L22.9167 26.1979L29.7917 19.375C30.4167 18.75 31.0764 18.559 31.7708 18.8021C32.5 19.0451 32.9861 19.5486 33.2292 20.3125C33.4722 21.0417 33.2986 21.7014 32.7083 22.2917L24.4271 30.625C23.9757 31.0764 23.4722 31.3021 22.9167 31.3021C22.3611 31.2674 21.8576 31.0243 21.4063 30.5729L17.2917 26.4583Z" fill="#00E5BA"/>
</svg>
