<svg width="50" height="50" viewBox="0 0 50 50" fill="none" xmlns="http://www.w3.org/2000/svg">
<path d="M25 45.8333C21.7014 45.8333 18.559 45.0694 15.5729 43.5417L9.53125 45.0521C8.48958 45.3299 7.56944 45.3125 6.77083 45C5.97222 44.6528 5.39931 44.0799 5.05208 43.2812C4.70486 42.4826 4.67014 41.5625 4.94792 40.5208L6.45833 34.4271C4.93056 31.441 4.16667 28.2986 4.16667 25C4.16667 21.2153 5.10417 17.7257 6.97917 14.5312C8.85417 11.3368 11.3715 8.81944 14.5313 6.97916C17.7257 5.10417 21.2153 4.16667 25 4.16667C28.7847 4.16667 32.2743 5.10417 35.4688 6.97916C38.6632 8.81944 41.1806 11.3368 43.0208 14.5312C44.8958 17.7257 45.8333 21.2153 45.8333 25C45.8333 28.7847 44.8958 32.2743 43.0208 35.4687C41.1806 38.6285 38.6632 41.1458 35.4688 43.0208C32.2743 44.8958 28.7847 45.8333 25 45.8333ZM8.95833 41.5104C8.88889 41.8229 8.71528 41.8403 8.4375 41.5625C8.15972 41.2847 8.15972 41.1111 8.4375 41.0417L15.5208 39.3229C15.6944 39.2535 15.8854 39.2361 16.0938 39.2708C16.3368 39.3056 16.5625 39.3924 16.7708 39.5312C18.0556 40.2257 19.375 40.7639 20.7292 41.1458C22.0833 41.4931 23.5069 41.6667 25 41.6667C28.125 41.6667 30.9549 40.9375 33.4896 39.4792C36.0243 38.0208 38.0208 36.0243 39.4792 33.4896C40.9375 30.9549 41.6667 28.125 41.6667 25C41.6667 21.875 40.9375 19.0451 39.4792 16.5104C38.0208 13.9757 36.0243 11.9792 33.4896 10.5208C30.9549 9.0625 28.125 8.33333 25 8.33333C21.875 8.33333 19.0451 9.0625 16.5104 10.5208C13.9757 11.9792 11.9792 13.9757 10.5208 16.5104C9.0625 19.0451 8.33333 21.875 8.33333 25C8.33333 26.4931 8.50694 27.9167 8.85417 29.2708C9.23611 30.625 9.77431 31.9444 10.4688 33.2292C10.7465 33.6458 10.816 34.0625 10.6771 34.4792L8.95833 41.5104ZM21.7708 31.1458C21.1806 31.7361 20.5208 31.9097 19.7917 31.6667C19.0625 31.4236 18.559 30.9549 18.2813 30.2604C18.0382 29.5312 18.2292 28.8542 18.8542 28.2292L28.2292 18.8542C28.8542 18.2292 29.5139 18.0382 30.2083 18.2812C30.9375 18.5243 31.4236 19.0278 31.6667 19.7917C31.9097 20.5208 31.7361 21.1806 31.1458 21.7708L21.7708 31.1458ZM18.8542 21.7708C18.2639 21.1806 18.0903 20.5208 18.3333 19.7917C18.5764 19.0625 19.0451 18.5764 19.7396 18.3333C20.4688 18.0556 21.1458 18.2292 21.7708 18.8542L31.1458 28.2292C31.7361 28.8194 31.9097 29.4792 31.6667 30.2083C31.4236 30.9375 30.9375 31.441 30.2083 31.7187C29.5139 31.9618 28.8542 31.7708 28.2292 31.1458L18.8542 21.7708Z" fill="#00E5BA"/>
</svg>
