<svg width="50" height="50" viewBox="0 0 50 50" fill="none" xmlns="http://www.w3.org/2000/svg">
<path d="M14.5833 43.75C13.0208 43.75 11.5972 43.3854 10.3125 42.6562C9.0625 41.9271 8.07292 40.9375 7.34375 39.6875C6.61458 38.4028 6.25 36.9792 6.25 35.4167V17.8125C6.25 17.2917 6.30208 16.7708 6.40625 16.25C6.54514 15.7292 6.73611 15.2083 6.97917 14.6875L9.0625 10.5208C9.75695 9.16666 10.7118 8.125 11.9271 7.39583C13.1771 6.63194 14.5139 6.25 15.9375 6.25H34.0625C35.4861 6.25 36.8056 6.63194 38.0208 7.39583C39.2708 8.125 40.2431 9.1493 40.9375 10.4687L43.0208 14.6875C43.2639 15.2083 43.4375 15.7292 43.5417 16.25C43.6806 16.7708 43.75 17.2917 43.75 17.8125V35.4167C43.75 36.9792 43.3854 38.4028 42.6563 39.6875C41.9271 40.9375 40.9201 41.9271 39.6354 42.6562C38.3854 43.3854 36.9792 43.75 35.4167 43.75H14.5833ZM35.4167 39.5833C36.8056 39.5833 37.8472 39.2361 38.5417 38.5417C39.2361 37.8472 39.5833 36.8056 39.5833 35.4167V17.8125C39.5833 17.5694 39.566 17.3611 39.5313 17.1875C39.4965 17.0139 39.4097 16.8056 39.2708 16.5625V16.5104L37.2396 12.3958C37.066 12.0833 36.8924 11.8229 36.7188 11.6146C36.5451 11.3715 36.3542 11.1632 36.1458 10.9896C35.8681 10.7812 35.5556 10.6424 35.2083 10.5729C34.8958 10.4687 34.5139 10.4167 34.0625 10.4167H15.9375C15.4861 10.4167 15.1042 10.4687 14.7917 10.5729C14.4792 10.6424 14.1667 10.7812 13.8542 10.9896C13.6458 11.1632 13.4549 11.3715 13.2812 11.6146C13.1076 11.8229 12.934 12.0833 12.7604 12.3958L10.7292 16.5104V16.5625C10.625 16.8056 10.5382 17.0139 10.4688 17.1875C10.434 17.3611 10.4167 17.5694 10.4167 17.8125V35.4167C10.4167 36.8056 10.7639 37.8472 11.4583 38.5417C12.1528 39.2361 13.1944 39.5833 14.5833 39.5833H35.4167ZM8.33333 14.5833H41.6667V18.75H8.33333V14.5833ZM28.125 29.1667C28.125 30.0347 27.8125 30.7812 27.1875 31.4062C26.5972 31.9965 25.8681 32.2917 25 32.2917C24.1319 32.2917 23.3854 31.9965 22.7604 31.4062C22.1701 30.7812 21.875 30.0347 21.875 29.1667C21.875 28.2986 22.1701 27.5694 22.7604 26.9792C23.3854 26.3542 24.1319 26.0417 25 26.0417C25.8681 26.0417 26.5972 26.3542 27.1875 26.9792C27.8125 27.5694 28.125 28.2986 28.125 29.1667ZM36.4583 29.1667C36.4583 30.0347 36.1458 30.7812 35.5208 31.4062C34.9306 31.9965 34.2014 32.2917 33.3333 32.2917C32.4653 32.2917 31.7188 31.9965 31.0938 31.4062C30.5035 30.7812 30.2083 30.0347 30.2083 29.1667C30.2083 28.2986 30.5035 27.5694 31.0938 26.9792C31.7188 26.3542 32.4653 26.0417 33.3333 26.0417C34.2014 26.0417 34.9306 26.3542 35.5208 26.9792C36.1458 27.5694 36.4583 28.2986 36.4583 29.1667ZM19.7917 29.1667C19.7917 30.0347 19.4792 30.7812 18.8542 31.4062C18.2639 31.9965 17.5347 32.2917 16.6667 32.2917C15.7986 32.2917 15.0521 31.9965 14.4271 31.4062C13.8368 30.7812 13.5417 30.0347 13.5417 29.1667C13.5417 28.2986 13.8368 27.5694 14.4271 26.9792C15.0521 26.3542 15.7986 26.0417 16.6667 26.0417C17.5347 26.0417 18.2639 26.3542 18.8542 26.9792C19.4792 27.5694 19.7917 28.2986 19.7917 29.1667Z" fill="#00E5BA"/>
</svg>
