<svg width="50" height="50" viewBox="0 0 50 50" fill="none" xmlns="http://www.w3.org/2000/svg">
<path d="M12.5 37.5C11.0069 37.5 9.61806 37.1354 8.33333 36.4062C7.04861 35.6424 6.02431 34.6181 5.26042 33.3333C4.53125 32.0486 4.16667 30.6597 4.16667 29.1667V16.6667C4.16667 15.1736 4.53125 13.7847 5.26042 12.5C6.02431 11.2153 7.04861 10.2083 8.33333 9.47917C9.61806 8.71528 11.0069 8.33333 12.5 8.33333H25C26.9097 8.33333 28.6111 8.92361 30.1042 10.1042C31.5972 11.25 32.5694 12.7257 33.0208 14.5312V14.5833H35.7813C36.5799 14.5833 37.3611 14.7396 38.125 15.0521C38.9236 15.3646 39.6007 15.816 40.1563 16.4062L44.0104 20.2604C44.6007 20.816 45.0521 21.4931 45.3646 22.2917C45.6771 23.0556 45.8333 23.8368 45.8333 24.6354V29.1667C45.8333 30.6597 45.4514 32.0486 44.6875 33.3333C43.9583 34.6181 42.9514 35.6424 41.6667 36.4062C40.3819 37.1354 38.9931 37.5 37.5 37.5H12.5ZM14.5833 43.75C13.4722 43.75 12.4306 43.4722 11.4583 42.9167C10.5208 42.3264 9.75695 41.5625 9.16667 40.625C8.61111 39.6528 8.33333 38.6111 8.33333 37.5V35.2604L12.5 35.4167V37.5C12.5 38.1944 12.6736 38.7153 13.0208 39.0625C13.3681 39.4097 13.8889 39.5833 14.5833 39.5833C15.2778 39.5833 15.7986 39.4097 16.1458 39.0625C16.4931 38.7153 16.6667 38.1944 16.6667 37.5V35.4167H20.8333V37.5C20.8333 38.6111 20.5556 39.6528 20 40.625C19.4444 41.5625 18.6806 42.3264 17.7083 42.9167C16.7361 43.4722 15.6944 43.75 14.5833 43.75ZM29.1667 33.3333V16.6667C29.1667 15.3819 28.7847 14.375 28.0208 13.6458C27.2917 12.8819 26.2847 12.5 25 12.5H12.5C11.2153 12.5 10.191 12.8819 9.42708 13.6458C8.69792 14.375 8.33333 15.3819 8.33333 16.6667V29.1667C8.33333 30.4514 8.69792 31.4757 9.42708 32.2396C10.191 32.9687 11.2153 33.3333 12.5 33.3333H29.1667ZM35.4167 43.75C34.3056 43.75 33.2639 43.4722 32.2917 42.9167C31.3542 42.3264 30.5903 41.5625 30 40.625C29.4444 39.6528 29.1667 38.6111 29.1667 37.5V35.4167H33.3333V37.5C33.3333 38.1944 33.5069 38.7153 33.8542 39.0625C34.2014 39.4097 34.7222 39.5833 35.4167 39.5833C36.1111 39.5833 36.6319 39.4097 36.9792 39.0625C37.3264 38.7153 37.5 38.1944 37.5 37.5V35.4167L41.6667 35.2604V37.5C41.6667 38.6111 41.3889 39.6528 40.8333 40.625C40.2778 41.5625 39.5139 42.3264 38.5417 42.9167C37.5694 43.4722 36.5278 43.75 35.4167 43.75ZM37.5 33.3333C38.7847 33.3333 39.7917 32.9687 40.5208 32.2396C41.2847 31.4757 41.6667 30.4514 41.6667 29.1667V24.6354C41.6667 24.4271 41.6493 24.2361 41.6146 24.0625C41.5799 23.8889 41.5278 23.7326 41.4583 23.5937C41.3889 23.4549 41.2674 23.316 41.0938 23.1771L37.2396 19.3229C37.1007 19.1493 36.9618 19.0278 36.8229 18.9583C36.684 18.8889 36.5278 18.8368 36.3542 18.8021C36.1806 18.7674 35.9896 18.75 35.7813 18.75H33.3333V33.3333H37.5Z" fill="#00E5BA"/>
</svg>
