<svg width="33" height="30" viewBox="0 0 33 30" fill="none" xmlns="http://www.w3.org/2000/svg">
<path d="M6.5 29.9167C5.38889 29.9167 4.34722 29.6389 3.375 29.0833C2.43056 28.5 1.66667 27.7361 1.08333 26.7917C0.527778 25.8194 0.25 24.7778 0.25 23.6667V10.3333C0.25 9.19444 0.527778 8.15278 1.08333 7.20833C1.66667 6.23611 2.43056 5.47222 3.375 4.91667C4.34722 4.36111 5.38889 4.08333 6.5 4.08333H9.33333L12.2083 1.20833C12.3472 1.06944 12.5139 0.958332 12.7083 0.874998C12.9028 0.791664 13.0972 0.749998 13.2917 0.749998H19.7083C19.9028 0.749998 20.0972 0.791664 20.2917 0.874998C20.4861 0.958332 20.6528 1.06944 20.7917 1.20833L23.7083 4.08333H26.5C27.6389 4.08333 28.6806 4.36111 29.625 4.91667C30.5972 5.47222 31.3611 6.23611 31.9167 7.20833C32.4722 8.15278 32.75 9.19444 32.75 10.3333V23.6667C32.75 24.7778 32.4722 25.8194 31.9167 26.7917C31.3611 27.7361 30.5972 28.5 29.625 29.0833C28.6806 29.6389 27.6389 29.9167 26.5 29.9167H6.5ZM26.5 27.4167C27.6389 27.4167 28.5417 27.0694 29.2083 26.375C29.9028 25.6806 30.25 24.7778 30.25 23.6667V10.3333C30.25 9.19444 29.9028 8.29167 29.2083 7.625C28.5417 6.93055 27.6389 6.58333 26.5 6.58333H22.6667L19.0417 2.95833C18.9861 2.90278 19.0972 2.94444 19.375 3.08333C19.6528 3.19444 19.7639 3.25 19.7083 3.25H13.2917C13.2361 3.25 13.3472 3.19444 13.625 3.08333C13.9028 2.94444 14.0139 2.90278 13.9583 2.95833L10.375 6.58333H6.5C5.38889 6.58333 4.48611 6.93055 3.79167 7.625C3.09722 8.29167 2.75 9.19444 2.75 10.3333V23.6667C2.75 24.7778 3.09722 25.6806 3.79167 26.375C4.48611 27.0694 5.38889 27.4167 6.5 27.4167H26.5ZM16.5 24.9167C15.0556 24.9167 13.7222 24.5694 12.5 23.875C11.3056 23.1528 10.3472 22.1944 9.625 21C8.93056 19.7778 8.58333 18.4444 8.58333 17C8.58333 15.5556 8.93056 14.2361 9.625 13.0417C10.3472 11.8194 11.3056 10.8611 12.5 10.1667C13.7222 9.44444 15.0556 9.08333 16.5 9.08333C17.9444 9.08333 19.2639 9.44444 20.4583 10.1667C21.6806 10.8611 22.6389 11.8194 23.3333 13.0417C24.0556 14.2361 24.4167 15.5556 24.4167 17C24.4167 18.4444 24.0556 19.7778 23.3333 21C22.6389 22.1944 21.6806 23.1528 20.4583 23.875C19.2639 24.5694 17.9444 24.9167 16.5 24.9167ZM16.5 22.4167C17.5556 22.4167 18.4861 22.1944 19.2917 21.75C20.125 21.2778 20.7639 20.6389 21.2083 19.8333C21.6806 19 21.9167 18.0556 21.9167 17C21.9167 15.9444 21.6806 15.0139 21.2083 14.2083C20.7639 13.375 20.125 12.7361 19.2917 12.2917C18.4861 11.8194 17.5556 11.5833 16.5 11.5833C15.4444 11.5833 14.5 11.8194 13.6667 12.2917C12.8611 12.7361 12.2222 13.375 11.75 14.2083C11.3056 15.0139 11.0833 15.9444 11.0833 17C11.0833 18.0556 11.3056 19 11.75 19.8333C12.2222 20.6389 12.8611 21.2778 13.6667 21.75C14.5 22.1944 15.4444 22.4167 16.5 22.4167Z" fill="#8FC9CB"/>
</svg>
