<svg width="40" height="40" viewBox="0 0 40 40" fill="none" xmlns="http://www.w3.org/2000/svg">
<path d="M6.66667 10C6.66667 8.80555 6.95833 7.69444 7.54167 6.66667C8.15278 5.63889 8.97222 4.83333 10 4.25C11.0278 3.63889 12.1389 3.33333 13.3333 3.33333H26.6667C27.8611 3.33333 28.9722 3.63889 30 4.25C31.0278 4.83333 31.8333 5.63889 32.4167 6.66667C33.0278 7.69444 33.3333 8.80555 33.3333 10V34.4167C33.3333 34.8889 33.1806 35.3056 32.875 35.6667C32.5972 36.0278 32.2361 36.2639 31.7917 36.375C31.3472 36.4861 30.9028 36.4583 30.4583 36.2917L20 31.7917L9.54167 36.2917C9.09722 36.4583 8.65278 36.4861 8.20833 36.375C7.79167 36.2639 7.43056 36.0278 7.125 35.6667C6.81944 35.3056 6.66667 34.8889 6.66667 34.4167V10ZM10 34.4167C10 34.3611 9.98611 34.3194 9.95833 34.2917C9.93056 34.2361 9.90278 34.1667 9.875 34.0833C9.70833 33.8333 9.375 33.4444 8.875 32.9167L19.4583 28.4167C19.6528 28.3611 19.8333 28.3333 20 28.3333C20.1944 28.3333 20.375 28.3611 20.5417 28.4167L31.125 32.9167C30.6528 33.4444 30.3194 33.8333 30.125 34.0833C30.0972 34.1667 30.0694 34.2361 30.0417 34.2917C30.0139 34.3194 30 34.3611 30 34.4167V10C30 8.97222 29.6944 8.16666 29.0833 7.58333C28.5 6.97222 27.6944 6.66667 26.6667 6.66667H13.3333C12.3056 6.66667 11.4861 6.97222 10.875 7.58333C10.2917 8.16666 10 8.97222 10 10V34.4167Z" fill="#3D4946"/>
</svg>
