<svg width="20" height="20" viewBox="0 0 20 20" fill="none" xmlns="http://www.w3.org/2000/svg">
<path d="M4.75 16.4167C4.51389 16.6528 4.25 16.7222 3.95833 16.625C3.66667 16.5278 3.46528 16.3403 3.35417 16.0625C3.25694 15.7708 3.33333 15.5 3.58333 15.25L15.25 3.58333C15.4861 3.34722 15.75 3.27778 16.0417 3.375C16.3333 3.47222 16.5278 3.66667 16.625 3.95833C16.7361 4.23611 16.6667 4.5 16.4167 4.75L4.75 16.4167ZM3.58333 4.75C3.33333 4.5 3.25694 4.23611 3.35417 3.95833C3.45139 3.66667 3.64583 3.47222 3.9375 3.375C4.24306 3.27778 4.51389 3.34722 4.75 3.58333L16.4167 15.25C16.6528 15.4861 16.7222 15.75 16.625 16.0417C16.5278 16.3333 16.3333 16.5347 16.0417 16.6458C15.7639 16.7431 15.5 16.6667 15.25 16.4167L3.58333 4.75Z" fill="#3D3D40"/>
</svg>
