<svg width="40" height="40" viewBox="0 0 40 40" fill="none" xmlns="http://www.w3.org/2000/svg">
<path d="M14.5417 35C14.3194 34.8333 14.1111 34.7083 13.9167 34.625C13.75 34.5417 13.5139 34.4861 13.2083 34.4583L11 34.2917C9.52778 34.1806 8.29167 33.5694 7.29167 32.4583C6.31944 31.3472 5.76389 29.9861 5.625 28.375L5.5 26.7917C5.47222 26.4861 5.41667 26.2361 5.33333 26.0417C5.27778 25.8472 5.16667 25.6389 5 25.4167L3.54167 23.75C2.56944 22.6389 2.125 21.3472 2.20833 19.875C2.29167 18.4028 2.875 17.0278 3.95833 15.75L5 14.5417C5.16667 14.3194 5.29167 14.1111 5.375 13.9167C5.45833 13.7222 5.51389 13.4861 5.54167 13.2083L5.70833 11C5.81944 9.5 6.41667 8.26389 7.5 7.29167C8.61111 6.31944 9.98611 5.76389 11.625 5.625L13.2083 5.5C13.5139 5.47222 13.7639 5.41666 13.9583 5.33333C14.1528 5.25 14.3472 5.125 14.5417 4.95833L16.2083 3.54167C17.3472 2.56944 18.625 2.08333 20.0417 2.08333C21.4583 2.08333 22.7222 2.55555 23.8333 3.5L25.5 4.91667C25.6944 5.11111 25.8889 5.25 26.0833 5.33333C26.2778 5.41666 26.5278 5.47222 26.8333 5.5L29 5.66667C30.4722 5.77778 31.6944 6.38889 32.6667 7.5C33.6667 8.61111 34.2361 9.98611 34.375 11.625L34.5 13.1667C34.5278 13.5 34.5694 13.7639 34.625 13.9583C34.7083 14.125 34.8611 14.3056 35.0833 14.5L36.5 16.1667C37.4444 17.3056 37.875 18.625 37.7917 20.125C37.7083 21.625 37.1528 22.9861 36.125 24.2083L35.0833 25.4583C34.8611 25.7083 34.7083 25.9306 34.625 26.125C34.5417 26.2917 34.5 26.5139 34.5 26.7917L34.3333 29C34.2222 30.4722 33.6111 31.7083 32.5 32.7083C31.3889 33.6806 30.0139 34.2361 28.375 34.375L26.8333 34.5C26.5278 34.5278 26.2778 34.5833 26.0833 34.6667C25.8889 34.7222 25.6944 34.8472 25.5 35.0417L23.8333 36.4583C22.6667 37.4306 21.3333 37.875 19.8333 37.7917C18.3611 37.7083 17 37.125 15.75 36.0417L14.5417 35ZM23.2917 32.5C23.7361 32.1111 24.2361 31.8056 24.7917 31.5833C25.3472 31.3611 25.9444 31.2222 26.5833 31.1667L28.125 31.0417C29.0694 30.9583 29.7639 30.7361 30.2083 30.375C30.6806 30.0139 30.9444 29.4722 31 28.75L31.1667 26.5833C31.2222 26 31.3611 25.4306 31.5833 24.875C31.8056 24.2917 32.1111 23.75 32.5 23.25L33.5833 22.0833C34.1667 21.3611 34.4861 20.6944 34.5417 20.0833C34.625 19.4722 34.4306 18.9028 33.9583 18.375L32.5 16.7083C32.1111 16.2639 31.8056 15.7639 31.5833 15.2083C31.3611 14.6528 31.2222 14.0556 31.1667 13.4167L31.0417 11.875C30.9861 10.9306 30.7639 10.2361 30.375 9.79167C30.0139 9.31944 29.4722 9.05555 28.75 9L26.5833 8.83333C25.9444 8.77778 25.3333 8.63889 24.75 8.41666C24.1944 8.16667 23.7083 7.84722 23.2917 7.45833L21.625 6.04167C21.0694 5.56944 20.5417 5.33333 20.0417 5.33333C19.5417 5.33333 19.0139 5.56944 18.4583 6.04167L16.7083 7.54167C16.2639 7.90278 15.7639 8.19444 15.2083 8.41666C14.6806 8.63889 14.0972 8.77778 13.4583 8.83333L11.875 8.95833C10.9306 9.01389 10.2361 9.23611 9.79167 9.625C9.34722 9.98611 9.09722 10.5278 9.04167 11.25L8.875 13.4583C8.81944 14.0417 8.66667 14.625 8.41667 15.2083C8.19444 15.7639 7.90278 16.25 7.54167 16.6667L6.5 17.875C5.86111 18.625 5.51389 19.2917 5.45833 19.875C5.40278 20.4583 5.61111 21.0139 6.08333 21.5417L7.54167 23.3333C7.90278 23.75 8.19444 24.25 8.41667 24.8333C8.63889 25.3889 8.77778 25.9583 8.83333 26.5417L8.95833 28.125C9.04167 29.0417 9.26389 29.7361 9.625 30.2083C9.98611 30.6528 10.5278 30.9028 11.25 30.9583L13.4583 31.125C14.0694 31.1806 14.6528 31.3194 15.2083 31.5417C15.7639 31.7639 16.2639 32.0694 16.7083 32.4583L17.9583 33.5C18.6528 34.1389 19.2917 34.4861 19.875 34.5417C20.4861 34.5972 21.0694 34.3889 21.625 33.9167L23.2917 32.5ZM13.3333 25C12.6389 25 12.1528 24.7222 11.875 24.1667C11.625 23.6111 11.625 23.0556 11.875 22.5C12.1528 21.9444 12.6389 21.6667 13.3333 21.6667H20C20.6944 21.6667 21.1667 21.9444 21.4167 22.5C21.6944 23.0556 21.6944 23.6111 21.4167 24.1667C21.1667 24.7222 20.6944 25 20 25H13.3333ZM13.3333 18.3333C12.6389 18.3333 12.1528 18.0556 11.875 17.5C11.625 16.9444 11.625 16.3889 11.875 15.8333C12.1528 15.2778 12.6389 15 13.3333 15H26.6667C27.3611 15 27.8333 15.2778 28.0833 15.8333C28.3611 16.3889 28.3611 16.9444 28.0833 17.5C27.8333 18.0556 27.3611 18.3333 26.6667 18.3333H13.3333Z" fill="#3D4946"/>
</svg>
