<svg width="30" height="30" viewBox="0 0 30 30" fill="none" xmlns="http://www.w3.org/2000/svg">
<path d="M15 25.4167C13.3507 25.4167 11.7795 25.0347 10.2865 24.2708L7.26563 25.026C6.74479 25.1649 6.28472 25.1562 5.88542 25C5.48611 24.8264 5.19965 24.5399 5.02604 24.1406C4.85243 23.7413 4.83507 23.2812 4.97396 22.7604L5.72917 19.7135C4.96528 18.2205 4.58333 16.6493 4.58333 15C4.58333 13.1076 5.05208 11.3628 5.98958 9.76562C6.92708 8.1684 8.18576 6.90972 9.76563 5.98958C11.3628 5.05208 13.1076 4.58333 15 4.58333C16.8924 4.58333 18.6372 5.05208 20.2344 5.98958C21.8316 6.90972 23.0903 8.1684 24.0104 9.76562C24.9479 11.3628 25.4167 13.1076 25.4167 15C25.4167 16.8924 24.9479 18.6372 24.0104 20.2344C23.0903 21.8142 21.8316 23.0729 20.2344 24.0104C18.6372 24.9479 16.8924 25.4167 15 25.4167ZM6.97917 23.2552C6.94444 23.4115 6.85764 23.4201 6.71875 23.2812C6.57986 23.1424 6.57986 23.0556 6.71875 23.0208L10.2344 22.1615C10.3385 22.1267 10.4427 22.1181 10.5469 22.1354C10.6684 22.1528 10.7813 22.1962 10.8854 22.2656C11.5278 22.6128 12.1875 22.8819 12.8646 23.0729C13.5417 23.2465 14.2535 23.3333 15 23.3333C16.5625 23.3333 17.9774 22.9687 19.2448 22.2396C20.5122 21.5104 21.5104 20.5122 22.2396 19.2448C22.9688 17.9774 23.3333 16.5625 23.3333 15C23.3333 13.4375 22.9688 12.0226 22.2396 10.7552C21.5104 9.48785 20.5122 8.48958 19.2448 7.76042C17.9774 7.03125 16.5625 6.66667 15 6.66667C13.4375 6.66667 12.0226 7.03125 10.7552 7.76042C9.48785 8.48958 8.48958 9.48785 7.76042 10.7552C7.03125 12.0226 6.66667 13.4375 6.66667 15C6.66667 15.7465 6.75347 16.4583 6.92708 17.1354C7.11806 17.8125 7.38715 18.4722 7.73438 19.1146C7.87326 19.3229 7.90799 19.5312 7.83854 19.7396L6.97917 23.2552Z" fill="white"/>
</svg>
