<svg width="24" height="24" viewBox="0 0 24 24" fill="none" xmlns="http://www.w3.org/2000/svg">
<path d="M6 11C5.66667 11 5.41667 11.0833 5.25 11.25C5.08333 11.4167 5 11.6667 5 12C5 12.3333 5.08333 12.5833 5.25 12.75C5.41667 12.9167 5.66667 13 6 13C6.33333 13 6.58333 12.9167 6.75 12.75C6.91667 12.5833 7 12.3333 7 12C7 11.6667 6.91667 11.4167 6.75 11.25C6.58333 11.0833 6.33333 11 6 11ZM6 9C6.53333 9 7.03333 9.13333 7.5 9.4C7.96667 9.66667 8.33333 10.0333 8.6 10.5C8.86667 10.9667 9 11.4667 9 12C9 12.5333 8.86667 13.0333 8.6 13.5C8.33333 13.95 7.96667 14.3167 7.5 14.6C7.03333 14.8667 6.53333 15 6 15C5.46667 15 4.96667 14.8667 4.5 14.6C4.05 14.3167 3.68333 13.95 3.4 13.5C3.13333 13.0333 3 12.5333 3 12C3 11.4667 3.13333 10.9667 3.4 10.5C3.68333 10.0333 4.05 9.66667 4.5 9.4C4.96667 9.13333 5.46667 9 6 9ZM17 5C16.6667 5 16.4167 5.08333 16.25 5.25C16.0833 5.41667 16 5.66667 16 6C16 6.33333 16.0833 6.58333 16.25 6.75C16.4167 6.91667 16.6667 7 17 7C17.3333 7 17.5833 6.91667 17.75 6.75C17.9167 6.58333 18 6.33333 18 6C18 5.66667 17.9167 5.41667 17.75 5.25C17.5833 5.08333 17.3333 5 17 5ZM17 3C17.5333 3 18.0333 3.13333 18.5 3.4C18.9667 3.66667 19.3333 4.03333 19.6 4.5C19.8667 4.96667 20 5.46667 20 6C20 6.53333 19.8667 7.03333 19.6 7.5C19.3333 7.95 18.9667 8.31667 18.5 8.6C18.0333 8.86667 17.5333 9 17 9C16.4667 9 15.9667 8.86667 15.5 8.6C15.05 8.31667 14.6833 7.95 14.4 7.5C14.1333 7.03333 14 6.53333 14 6C14 5.46667 14.1333 4.96667 14.4 4.5C14.6833 4.03333 15.05 3.66667 15.5 3.4C15.9667 3.13333 16.4667 3 17 3ZM17 17C16.6667 17 16.4167 17.0833 16.25 17.25C16.0833 17.4167 16 17.6667 16 18C16 18.3333 16.0833 18.5833 16.25 18.75C16.4167 18.9167 16.6667 19 17 19C17.3333 19 17.5833 18.9167 17.75 18.75C17.9167 18.5833 18 18.3333 18 18C18 17.6667 17.9167 17.4167 17.75 17.25C17.5833 17.0833 17.3333 17 17 17ZM17 15C17.5333 15 18.0333 15.1333 18.5 15.4C18.9667 15.6667 19.3333 16.0333 19.6 16.5C19.8667 16.9667 20 17.4667 20 18C20 18.5333 19.8667 19.0333 19.6 19.5C19.3333 19.95 18.9667 20.3167 18.5 20.6C18.0333 20.8667 17.5333 21 17 21C16.4667 21 15.9667 20.8667 15.5 20.6C15.05 20.3167 14.6833 19.95 14.4 19.5C14.1333 19.0333 14 18.5333 14 18C14 17.4667 14.1333 16.9667 14.4 16.5C14.6833 16.0333 15.05 15.6667 15.5 15.4C15.9667 15.1333 16.4667 15 17 15ZM14.775 17.925L7.275 13.825L8.225 12.075L15.725 16.175L14.775 17.925ZM7.275 10.175L14.775 6.075L15.725 7.825L8.225 11.925L7.275 10.175Z" fill="white"/>
</svg>
