<svg width="30" height="30" viewBox="0 0 30 30" fill="none" xmlns="http://www.w3.org/2000/svg">
<path d="M19.625 22.875C20 23.25 20.1146 23.6562 19.9688 24.0937C19.8229 24.5104 19.5208 24.7917 19.0625 24.9375C18.625 25.0833 18.2292 24.9792 17.875 24.625L9.09375 15.875C8.82292 15.5833 8.6875 15.2917 8.6875 15C8.6875 14.6875 8.82292 14.3958 9.09375 14.125L17.875 5.375C18.2292 5.02083 18.625 4.91667 19.0625 5.0625C19.5 5.20833 19.7917 5.5 19.9375 5.9375C20.1042 6.35417 20 6.75 19.625 7.125L11.7813 15L19.625 22.875Z" fill="#181818"/>
</svg>
