<svg width="28" height="28" viewBox="0 0 28 28" fill="none" xmlns="http://www.w3.org/2000/svg">
<path d="M4.66667 7C4.66667 6.16389 4.87083 5.38611 5.27917 4.66667C5.70694 3.94722 6.28056 3.38333 7 2.975C7.71944 2.54722 8.49722 2.33333 9.33333 2.33333H18.6667C19.5028 2.33333 20.2806 2.54722 21 2.975C21.7194 3.38333 22.2833 3.94722 22.6917 4.66667C23.1194 5.38611 23.3333 6.16389 23.3333 7V24.0917C23.3333 24.4222 23.2264 24.7139 23.0125 24.9667C22.8181 25.2194 22.5653 25.3847 22.2542 25.4625C21.9431 25.5403 21.6319 25.5208 21.3208 25.4042L14 22.2542L6.67917 25.4042C6.36806 25.5208 6.05694 25.5403 5.74583 25.4625C5.45417 25.3847 5.20139 25.2194 4.9875 24.9667C4.77361 24.7139 4.66667 24.4222 4.66667 24.0917V7ZM7 24.0917C7 24.0528 6.99028 24.0236 6.97083 24.0042C6.95139 23.9653 6.93194 23.9167 6.9125 23.8583C6.79583 23.6833 6.5625 23.4111 6.2125 23.0417L13.6208 19.8917C13.7569 19.8528 13.8833 19.8333 14 19.8333C14.1361 19.8333 14.2625 19.8528 14.3792 19.8917L21.7875 23.0417C21.4569 23.4111 21.2236 23.6833 21.0875 23.8583C21.0681 23.9167 21.0486 23.9653 21.0292 24.0042C21.0097 24.0236 21 24.0528 21 24.0917V7C21 6.28055 20.7861 5.71667 20.3583 5.30833C19.95 4.88055 19.3861 4.66667 18.6667 4.66667H9.33333C8.61389 4.66667 8.04028 4.88055 7.6125 5.30833C7.20417 5.71667 7 6.28055 7 7V24.0917Z" fill="#3D3D40"/>
</svg>
