<svg width="28" height="28" viewBox="0 0 28 28" fill="none" xmlns="http://www.w3.org/2000/svg">
<path d="M19.8333 3.5C20.6694 3.5 21.4472 3.71389 22.1667 4.14167C22.8861 4.55 23.45 5.11389 23.8583 5.83333C24.2861 6.55278 24.5 7.33055 24.5 8.16667V19.8333C24.5 20.6694 24.2861 21.4472 23.8583 22.1667C23.45 22.8861 22.8861 23.4597 22.1667 23.8875C21.4472 24.2958 20.6694 24.5 19.8333 24.5H18.6667C18.1806 24.5 17.8403 24.3056 17.6458 23.9167C17.4708 23.5278 17.4708 23.1389 17.6458 22.75C17.8403 22.3611 18.1806 22.1667 18.6667 22.1667H19.8333C20.5528 22.1667 21.1167 21.9625 21.525 21.5542C21.9528 21.1264 22.1667 20.5528 22.1667 19.8333V8.16667C22.1667 7.44722 21.9528 6.88333 21.525 6.475C21.1167 6.04722 20.5528 5.83333 19.8333 5.83333H18.6667C18.3167 5.83333 18.0347 5.71667 17.8208 5.48333C17.6264 5.25 17.5292 4.97778 17.5292 4.66667C17.5292 4.35555 17.6264 4.08333 17.8208 3.85C18.0347 3.61666 18.3167 3.5 18.6667 3.5H19.8333ZM13.1833 10.15C12.8528 9.81944 12.7556 9.45 12.8917 9.04167C13.0278 8.61389 13.2903 8.33194 13.6792 8.19583C14.0875 8.05972 14.4667 8.16666 14.8167 8.51667L19.4833 13.1542C19.7361 13.4069 19.8625 13.6889 19.8625 14C19.8625 14.3111 19.7361 14.5931 19.4833 14.8458L14.8167 19.4833C14.4861 19.8139 14.1069 19.9111 13.6792 19.775C13.2708 19.6389 12.9986 19.3764 12.8625 18.9875C12.7264 18.5792 12.8333 18.2 13.1833 17.85L17.0042 14L13.1833 10.15ZM18.6667 12.8333V15.1667H4.66667C4.18056 15.1667 3.84028 14.9722 3.64583 14.5833C3.47083 14.1944 3.47083 13.8056 3.64583 13.4167C3.84028 13.0278 4.18056 12.8333 4.66667 12.8333H18.6667Z" fill="#3D3D40"/>
</svg>
