<svg width="24" height="24" viewBox="0 0 24 24" fill="none" xmlns="http://www.w3.org/2000/svg">
<path d="M12 21.625C10.2667 21.625 8.65833 21.1917 7.175 20.325C5.70833 19.4583 4.54167 18.2917 3.675 16.825C2.80833 15.3417 2.375 13.7333 2.375 12C2.375 10.2667 2.80833 8.66667 3.675 7.2C4.54167 5.71667 5.70833 4.54167 7.175 3.675C8.65833 2.80833 10.2667 2.375 12 2.375C13.7333 2.375 15.3333 2.80833 16.8 3.675C18.2833 4.54167 19.4583 5.71667 20.325 7.2C21.1917 8.66667 21.625 10.2667 21.625 12C21.625 13.7333 21.1917 15.3417 20.325 16.825C19.4583 18.2917 18.2833 19.4583 16.8 20.325C15.3333 21.1917 13.7333 21.625 12 21.625ZM12 20.375C13.5333 20.375 14.9417 20.0083 16.225 19.275C17.5083 18.525 18.5167 17.5083 19.25 16.225C20 14.9417 20.375 13.5333 20.375 12C20.375 10.4667 20 9.05833 19.25 7.775C18.5167 6.49167 17.5083 5.48333 16.225 4.75C14.9417 4 13.5333 3.625 12 3.625C10.4667 3.625 9.05833 4 7.775 4.75C6.49167 5.48333 5.475 6.49167 4.725 7.775C3.99167 9.05833 3.625 10.4667 3.625 12C3.625 13.5333 3.99167 14.9417 4.725 16.225C5.475 17.5083 6.49167 18.525 7.775 19.275C9.05833 20.0083 10.4667 20.375 12 20.375ZM11.375 13C11.375 12.6167 11.4417 12.2833 11.575 12C11.7083 11.7 11.875 11.45 12.075 11.25C12.275 11.0333 12.5333 10.8 12.85 10.55L12.95 10.45C13.2833 10.1833 13.5167 9.95833 13.65 9.775C13.8 9.575 13.875 9.31667 13.875 9C13.875 8.58333 13.7083 8.25 13.375 8C13.0417 7.75 12.5833 7.625 12 7.625C11.4167 7.625 10.9583 7.75 10.625 8C10.2917 8.25 10.125 8.58333 10.125 9C10.125 9.25 10.0167 9.425 9.8 9.525C9.6 9.625 9.39167 9.625 9.175 9.525C8.975 9.425 8.875 9.25 8.875 9C8.875 8.51667 9.00833 8.075 9.275 7.675C9.55833 7.275 9.94167 6.95833 10.425 6.725C10.9083 6.49167 11.4333 6.375 12 6.375C12.5667 6.375 13.0917 6.49167 13.575 6.725C14.0583 6.95833 14.4333 7.28333 14.7 7.7C14.9833 8.1 15.125 8.53333 15.125 9C15.125 9.53333 15 9.98333 14.75 10.35C14.5 10.7167 14.15 11.0833 13.7 11.45L13.6 11.55C13.3833 11.7167 13.2 11.8667 13.05 12C12.9167 12.1333 12.8083 12.2833 12.725 12.45C12.6583 12.6 12.625 12.7833 12.625 13C12.625 13.25 12.5167 13.425 12.3 13.525C12.1 13.625 11.8917 13.625 11.675 13.525C11.475 13.425 11.375 13.25 11.375 13ZM13.125 16.5C13.125 16.8 13.0083 17.0667 12.775 17.3C12.5583 17.5167 12.3 17.625 12 17.625C11.7 17.625 11.4333 17.5167 11.2 17.3C10.9833 17.0667 10.875 16.8 10.875 16.5C10.875 16.2 10.9833 15.9417 11.2 15.725C11.4333 15.4917 11.7 15.375 12 15.375C12.3 15.375 12.5583 15.4917 12.775 15.725C13.0083 15.9417 13.125 16.2 13.125 16.5Z" fill="#A3A3A3"/>
</svg>
