<svg width="28" height="28" viewBox="0 0 28 28" fill="none" xmlns="http://www.w3.org/2000/svg">
<path d="M9.33333 25.6667C8.49722 25.6667 7.71944 25.4625 7 25.0542C6.28056 24.6264 5.70694 24.0528 5.27917 23.3333C4.87083 22.6139 4.66667 21.8361 4.66667 21V11.6667C4.66667 10.8306 4.87083 10.0528 5.27917 9.33333C5.70694 8.61389 6.28056 8.05 7 7.64167C7.71944 7.21389 8.49722 7 9.33333 7H18.6667C19.5028 7 20.2806 7.21389 21 7.64167C21.7194 8.05 22.2833 8.61389 22.6917 9.33333C23.1194 10.0528 23.3333 10.8306 23.3333 11.6667V21C23.3333 21.8361 23.1194 22.6139 22.6917 23.3333C22.2833 24.0528 21.7194 24.6264 21 25.0542C20.2806 25.4625 19.5028 25.6667 18.6667 25.6667H9.33333ZM18.6667 23.3333C19.3861 23.3333 19.95 23.1292 20.3583 22.7208C20.7861 22.2931 21 21.7194 21 21V11.6667C21 10.9472 20.7861 10.3833 20.3583 9.975C19.95 9.54722 19.3861 9.33333 18.6667 9.33333H9.33333C8.61389 9.33333 8.04028 9.54722 7.6125 9.975C7.20417 10.3833 7 10.9472 7 11.6667V21C7 21.7194 7.20417 22.2931 7.6125 22.7208C8.04028 23.1292 8.61389 23.3333 9.33333 23.3333H18.6667ZM9.33333 7C9.33333 6.16389 9.5375 5.38611 9.94583 4.66667C10.3736 3.94722 10.9472 3.38333 11.6667 2.975C12.3861 2.54722 13.1639 2.33333 14 2.33333C14.8361 2.33333 15.6139 2.54722 16.3333 2.975C17.0528 3.38333 17.6167 3.94722 18.025 4.66667C18.4528 5.38611 18.6667 6.16389 18.6667 7V10.5C18.6667 10.9861 18.4722 11.3264 18.0833 11.5208C17.6944 11.6958 17.3056 11.6958 16.9167 11.5208C16.5278 11.3264 16.3333 10.9861 16.3333 10.5V7C16.3333 6.28055 16.1194 5.71667 15.6917 5.30833C15.2833 4.88055 14.7194 4.66667 14 4.66667C13.2806 4.66667 12.7069 4.88055 12.2792 5.30833C11.8708 5.71667 11.6667 6.28055 11.6667 7V10.5C11.6667 10.9861 11.4722 11.3264 11.0833 11.5208C10.6944 11.6958 10.3056 11.6958 9.91667 11.5208C9.52778 11.3264 9.33333 10.9861 9.33333 10.5V7Z" fill="#3D3D40"/>
</svg>
