<svg width="28" height="28" viewBox="0 0 28 28" fill="none" xmlns="http://www.w3.org/2000/svg">
<path d="M5.83333 25.6667C4.375 25.6667 3.22778 25.2583 2.39167 24.4417C1.575 23.6056 1.16667 22.4583 1.16667 21V20.8833C1.16667 19.7556 1.64306 18.7639 2.59583 17.9083C3.54861 17.0333 4.83194 16.3625 6.44583 15.8958C8.05972 15.4097 9.8 15.1667 11.6667 15.1667C13.5528 15.1667 15.2931 15.4097 16.8875 15.8958C18.5014 16.3625 19.7847 17.0333 20.7375 17.9083C21.6903 18.7639 22.1667 19.7556 22.1667 20.8833V21C22.1667 22.4583 21.7583 23.6056 20.9417 24.4417C20.125 25.2583 18.9778 25.6667 17.5 25.6667H5.83333ZM17.5 23.3333C18.3944 23.3333 19.0069 23.1681 19.3375 22.8375C19.6681 22.5069 19.8333 21.8944 19.8333 21V20.8833C19.8333 20.2611 19.4833 19.6972 18.7833 19.1917C18.1028 18.6667 17.1403 18.2583 15.8958 17.9667C14.6708 17.6556 13.2611 17.5 11.6667 17.5C10.0917 17.5 8.68194 17.6556 7.4375 17.9667C6.19306 18.2583 5.22083 18.6667 4.52083 19.1917C3.84028 19.6972 3.5 20.2611 3.5 20.8833V21C3.5 21.8944 3.66528 22.5069 3.99583 22.8375C4.32639 23.1681 4.93889 23.3333 5.83333 23.3333H17.5ZM11.6667 14C10.5972 14 9.61528 13.7375 8.72083 13.2125C7.84583 12.6875 7.14583 11.9875 6.62083 11.1125C6.09583 10.2181 5.83333 9.23611 5.83333 8.16667C5.83333 7.09722 6.09583 6.11528 6.62083 5.22083C7.14583 4.32639 7.84583 3.62639 8.72083 3.12083C9.61528 2.59583 10.5972 2.33333 11.6667 2.33333C12.7361 2.33333 13.7181 2.59583 14.6125 3.12083C15.5069 3.62639 16.2069 4.32639 16.7125 5.22083C17.2375 6.11528 17.5 7.09722 17.5 8.16667C17.5 9.23611 17.2375 10.2181 16.7125 11.1125C16.2069 11.9875 15.5069 12.6875 14.6125 13.2125C13.7181 13.7375 12.7361 14 11.6667 14ZM11.6667 11.6667C12.3667 11.6667 12.9792 11.5208 13.5042 11.2292C14.0292 10.9375 14.4375 10.5292 14.7292 10.0042C15.0208 9.47917 15.1667 8.86667 15.1667 8.16667C15.1667 7.46667 15.0208 6.85416 14.7292 6.32917C14.4375 5.80417 14.0292 5.39583 13.5042 5.10417C12.9792 4.8125 12.3667 4.66667 11.6667 4.66667C10.9667 4.66667 10.3542 4.8125 9.82917 5.10417C9.30417 5.39583 8.89583 5.80417 8.60417 6.32917C8.3125 6.85416 8.16667 7.46667 8.16667 8.16667C8.16667 8.86667 8.3125 9.47917 8.60417 10.0042C8.89583 10.5292 9.30417 10.9375 9.82917 11.2292C10.3542 11.5208 10.9667 11.6667 11.6667 11.6667ZM20.3583 16.275C20.0278 16.6056 19.6583 16.7028 19.25 16.5667C18.8417 16.4306 18.5597 16.1681 18.4042 15.7792C18.2681 15.3708 18.375 14.9917 18.725 14.6417L23.975 9.39167C24.325 9.04166 24.6944 8.93472 25.0833 9.07083C25.4917 9.20694 25.7639 9.48889 25.9 9.91667C26.0361 10.325 25.9389 10.6944 25.6083 11.025L20.3583 16.275ZM18.725 11.025C18.3944 10.6944 18.2972 10.325 18.4333 9.91667C18.5694 9.50833 18.8319 9.23611 19.2208 9.1C19.6292 8.94444 20.0083 9.04166 20.3583 9.39167L25.6083 14.6417C25.9389 14.9722 26.0361 15.3417 25.9 15.75C25.7639 16.1583 25.4917 16.4403 25.0833 16.5958C24.6944 16.7319 24.325 16.625 23.975 16.275L18.725 11.025Z" fill="#3D3D40"/>
</svg>
