<svg width="28" height="28" viewBox="0 0 28 28" fill="none" xmlns="http://www.w3.org/2000/svg">
<path d="M8.16667 24.5C7.33056 24.5 6.55278 24.2958 5.83333 23.8875C5.11389 23.4597 4.54028 22.8861 4.1125 22.1667C3.70417 21.4472 3.5 20.6694 3.5 19.8333V13.7958C2.87778 13.1542 2.45972 12.3958 2.24583 11.5208C2.03194 10.6264 2.09028 9.73194 2.42083 8.8375L3.29583 6.53333C3.64583 5.61944 4.21944 4.89028 5.01667 4.34583C5.81389 3.78194 6.69861 3.5 7.67083 3.5H20.3292C21.3014 3.5 22.1861 3.78194 22.9833 4.34583C23.7806 4.89028 24.3542 5.60972 24.7042 6.50417L25.5792 8.8375C25.9097 9.73194 25.9681 10.6264 25.7542 11.5208C25.5597 12.3958 25.1417 13.1542 24.5 13.7958V19.8333C24.5 20.6694 24.2861 21.4472 23.8583 22.1667C23.45 22.8861 22.8861 23.4597 22.1667 23.8875C21.4472 24.2958 20.6694 24.5 19.8333 24.5H8.16667ZM19.8333 22.1667C20.5722 22.1667 21.1458 21.9625 21.5542 21.5542C21.9625 21.1264 22.1667 20.5528 22.1667 19.8333V14.9917C21.7972 15.1083 21.4667 15.1667 21.175 15.1667C20.475 15.1667 19.8139 15.0111 19.1917 14.7C18.5889 14.3889 18.0736 13.9708 17.6458 13.4458C17.2181 13.9708 16.7028 14.3889 16.1 14.7C15.4972 15.0111 14.8361 15.1667 14.1167 15.1667H13.8833C13.1833 15.1667 12.5222 15.0111 11.9 14.7C11.2972 14.3889 10.7819 13.9708 10.3542 13.4458C9.94583 13.9708 9.43056 14.3889 8.80833 14.7C8.18611 15.0111 7.525 15.1667 6.825 15.1667C6.55278 15.1667 6.22222 15.1083 5.83333 14.9917V19.8333C5.83333 20.5528 6.0375 21.1264 6.44583 21.5542C6.87361 21.9625 7.44722 22.1667 8.16667 22.1667H19.8333ZM6.825 12.8333C7.48611 12.8333 8.02083 12.6583 8.42917 12.3083C8.8375 11.9583 9.08056 11.4528 9.15833 10.7917L9.77083 5.83333H7.67083C7.12639 5.83333 6.66944 5.95972 6.3 6.2125C5.95 6.44583 5.6875 6.81528 5.5125 7.32083L4.6375 9.65417C4.42361 10.2375 4.375 10.7722 4.49167 11.2583C4.62778 11.725 4.9 12.1042 5.30833 12.3958C5.71667 12.6875 6.22222 12.8333 6.825 12.8333ZM14.1167 12.8333C14.6417 12.8333 15.0889 12.7264 15.4583 12.5125C15.8278 12.2792 16.1 11.9681 16.275 11.5792C16.45 11.1903 16.5083 10.7431 16.45 10.2375L15.8958 5.83333H12.1042L11.55 10.2375C11.4917 10.7431 11.55 11.1903 11.725 11.5792C11.9 11.9681 12.1722 12.2792 12.5417 12.5125C12.9111 12.7264 13.3583 12.8333 13.8833 12.8333H14.1167ZM21.175 12.8333C21.7972 12.8333 22.3125 12.6875 22.7208 12.3958C23.1292 12.1042 23.3917 11.725 23.5083 11.2583C23.625 10.7722 23.5861 10.2375 23.3917 9.65417L22.5167 7.32083C22.3222 6.81528 22.0403 6.44583 21.6708 6.2125C21.3208 5.95972 20.8736 5.83333 20.3292 5.83333H18.2583L18.8417 10.7917C18.9389 11.4528 19.1819 11.9583 19.5708 12.3083C19.9792 12.6583 20.5139 12.8333 21.175 12.8333Z" fill="#3D3D40"/>
</svg>
