<svg width="28" height="28" viewBox="0 0 28 28" fill="none" xmlns="http://www.w3.org/2000/svg">
<path d="M8.16667 24.5C7.31111 24.5 6.52361 24.2958 5.80417 23.8875C5.10417 23.4597 4.54028 22.8958 4.1125 22.1958C3.70417 21.4764 3.5 20.6889 3.5 19.8333V8.16667C3.5 7.31111 3.70417 6.52361 4.1125 5.80416C4.54028 5.08472 5.10417 4.52083 5.80417 4.1125C6.52361 3.70417 7.31111 3.5 8.16667 3.5H19.8333C20.6889 3.5 21.4764 3.70417 22.1958 4.1125C22.9153 4.52083 23.4792 5.08472 23.8875 5.80416C24.2958 6.52361 24.5 7.31111 24.5 8.16667V19.8333C24.5 20.6889 24.2958 21.4764 23.8875 22.1958C23.4792 22.8958 22.9153 23.4597 22.1958 23.8875C21.4764 24.2958 20.6889 24.5 19.8333 24.5H8.16667ZM19.8333 22.1667C20.5722 22.1667 21.1458 21.9625 21.5542 21.5542C21.9625 21.1264 22.1667 20.5528 22.1667 19.8333V8.16667C22.1667 7.42778 21.9625 6.85417 21.5542 6.44583C21.1458 6.0375 20.5722 5.83333 19.8333 5.83333H8.16667C7.44722 5.83333 6.87361 6.0375 6.44583 6.44583C6.0375 6.85417 5.83333 7.42778 5.83333 8.16667V19.8333C5.83333 20.5528 6.0375 21.1264 6.44583 21.5542C6.87361 21.9625 7.44722 22.1667 8.16667 22.1667H19.8333ZM17.5292 9.04167C17.6458 8.575 17.9181 8.29305 18.3458 8.19583C18.7736 8.09861 19.1528 8.19583 19.4833 8.4875C19.8139 8.75972 19.9208 9.12917 19.8042 9.59583L17.4708 18.9292C17.3931 19.3181 17.1792 19.5806 16.8292 19.7167C16.4986 19.8528 16.1681 19.8528 15.8375 19.7167C15.5069 19.5806 15.2931 19.3181 15.1958 18.9292L14 14.1458L12.8042 18.9292C12.7264 19.3181 12.5125 19.5806 12.1625 19.7167C11.8319 19.8528 11.5014 19.8528 11.1708 19.7167C10.8403 19.5806 10.6264 19.3181 10.5292 18.9292L8.19583 9.59583C8.05972 9.12917 8.15695 8.75972 8.4875 8.4875C8.8375 8.19583 9.22639 8.09861 9.65417 8.19583C10.0819 8.29305 10.3542 8.575 10.4708 9.04167L11.6667 13.8542L12.8625 9.04167C12.9597 8.67222 13.1736 8.41944 13.5042 8.28333C13.8347 8.14722 14.1653 8.14722 14.4958 8.28333C14.8458 8.41944 15.0597 8.67222 15.1375 9.04167L16.3333 13.8542L17.5292 9.04167ZM10.5 15.1667H8.16667C7.68056 15.1667 7.34028 14.9722 7.14583 14.5833C6.97083 14.1944 6.97083 13.8056 7.14583 13.4167C7.34028 13.0278 7.68056 12.8333 8.16667 12.8333H10.5V15.1667ZM19.8333 12.8333C20.3194 12.8333 20.65 13.0278 20.825 13.4167C21.0194 13.8056 21.0194 14.1944 20.825 14.5833C20.65 14.9722 20.3194 15.1667 19.8333 15.1667H17.5V12.8333H19.8333Z" fill="#3D3D40"/>
</svg>
