<svg width="25" height="25" viewBox="0 0 25 25" fill="none" xmlns="http://www.w3.org/2000/svg">
<path d="M4.16667 6.25C4.16667 5.50347 4.34896 4.80903 4.71354 4.16667C5.09549 3.5243 5.60764 3.02083 6.25 2.65625C6.89236 2.2743 7.58681 2.08333 8.33333 2.08333H16.6667C17.4132 2.08333 18.1076 2.2743 18.75 2.65625C19.3924 3.02083 19.8958 3.5243 20.2604 4.16667C20.6424 4.80903 20.8333 5.50347 20.8333 6.25V21.5104C20.8333 21.8056 20.7378 22.066 20.5469 22.2917C20.3733 22.5174 20.1476 22.6649 19.8698 22.7344C19.592 22.8038 19.3142 22.7865 19.0365 22.6823L12.5 19.8698L5.96354 22.6823C5.68576 22.7865 5.40799 22.8038 5.13021 22.7344C4.86979 22.6649 4.6441 22.5174 4.45313 22.2917C4.26215 22.066 4.16667 21.8056 4.16667 21.5104V6.25ZM6.25 21.5104C6.25 21.4757 6.24132 21.4497 6.22396 21.4323C6.2066 21.3976 6.18924 21.3542 6.17188 21.3021C6.06771 21.1458 5.85938 20.9028 5.54688 20.5729L12.1615 17.7604C12.283 17.7257 12.3958 17.7083 12.5 17.7083C12.6215 17.7083 12.7344 17.7257 12.8385 17.7604L19.4531 20.5729C19.158 20.9028 18.9497 21.1458 18.8281 21.3021C18.8108 21.3542 18.7934 21.3976 18.776 21.4323C18.7587 21.4497 18.75 21.4757 18.75 21.5104V6.25C18.75 5.60764 18.559 5.10417 18.1771 4.73958C17.8125 4.35764 17.309 4.16667 16.6667 4.16667H8.33333C7.69097 4.16667 7.17882 4.35764 6.79688 4.73958C6.43229 5.10417 6.25 5.60764 6.25 6.25V21.5104Z" fill="#00E5BA"/>
<path d="M6 4H19V20.5C14.3654 20.5423 10.6782 17.8697 6 20.5V4Z" fill="#00E5BA"/>
</svg>
