<svg width="13" height="21" viewBox="0 0 13 21" fill="none" xmlns="http://www.w3.org/2000/svg">
<path d="M11.625 18.375C12 18.75 12.1146 19.1562 11.9688 19.5937C11.8229 20.0104 11.5208 20.2917 11.0625 20.4375C10.625 20.5833 10.2292 20.4792 9.875 20.125L1.09375 11.375C0.822917 11.0833 0.687501 10.7917 0.687501 10.5C0.687501 10.1875 0.822917 9.89583 1.09375 9.625L9.875 0.874998C10.2292 0.520832 10.625 0.416666 11.0625 0.562498C11.5 0.708331 11.7917 0.999998 11.9375 1.4375C12.1042 1.85417 12 2.25 11.625 2.625L3.78125 10.5L11.625 18.375Z" fill="#181818"/>
</svg>
