<svg width="12" height="23" viewBox="0 0 12 23" fill="none" xmlns="http://www.w3.org/2000/svg">
<path d="M8 11.5C8 12.05 7.80833 12.525 7.425 12.925C7.04167 13.3083 6.56667 13.5 6 13.5C5.45 13.5 4.975 13.3083 4.575 12.925C4.19167 12.525 4 12.05 4 11.5C4 10.9333 4.19167 10.4583 4.575 10.075C4.975 9.69167 5.45 9.5 6 9.5C6.56667 9.5 7.04167 9.69167 7.425 10.075C7.80833 10.4583 8 10.9333 8 11.5ZM8 4.5C8 5.05 7.80833 5.525 7.425 5.925C7.04167 6.30833 6.56667 6.5 6 6.5C5.45 6.5 4.975 6.30833 4.575 5.925C4.19167 5.525 4 5.05 4 4.5C4 3.93333 4.19167 3.45833 4.575 3.075C4.975 2.69167 5.45 2.5 6 2.5C6.56667 2.5 7.04167 2.69167 7.425 3.075C7.80833 3.45833 8 3.93333 8 4.5ZM8 18.5C8 19.05 7.80833 19.525 7.425 19.925C7.04167 20.3083 6.56667 20.5 6 20.5C5.45 20.5 4.975 20.3083 4.575 19.925C4.19167 19.525 4 19.05 4 18.5C4 17.9333 4.19167 17.4583 4.575 17.075C4.975 16.6917 5.45 16.5 6 16.5C6.56667 16.5 7.04167 16.6917 7.425 17.075C7.80833 17.4583 8 17.9333 8 18.5Z" fill="#3D3D40"/>
</svg>
