<svg width="24" height="24" viewBox="0 0 24 24" fill="none" xmlns="http://www.w3.org/2000/svg">
<path d="M10.375 13.5C10.5583 13.7667 10.65 13.9167 10.65 13.95L13.25 19.05C13.2167 19.15 13.2083 19.225 13.225 19.275C13.2417 19.3083 13.2583 19.3333 13.275 19.35C13.3083 19.35 13.3333 19.3333 13.35 19.3L18.15 5.9C18.25 5.86667 18.2917 5.83333 18.275 5.8C18.275 5.75 18.25 5.73333 18.2 5.75L4.925 10.375C4.84167 10.325 4.8 10.325 4.8 10.375C4.8 10.4083 4.83333 10.4083 4.9 10.375L10.375 13.5ZM3.95 12.125C3.46667 11.8583 3.15 11.475 3 10.975C2.86667 10.475 2.90833 9.99167 3.125 9.525C3.35833 9.04167 3.73333 8.7 4.25 8.5L17.525 3.875C18.0583 3.70833 18.5583 3.73333 19.025 3.95C19.4917 4.15 19.825 4.49167 20.025 4.975C20.2417 5.44167 20.2667 5.93333 20.1 6.45L15.225 19.95C15.025 20.4833 14.6833 20.8583 14.2 21.075C13.7167 21.2917 13.2167 21.325 12.7 21.175C12.2 21.0083 11.825 20.6667 11.575 20.15L9.55 16.2C8.98333 15.0667 8.75 14.575 8.85 14.725C8.93333 14.9083 9 15.025 9.05 15.075L3.95 12.125Z" fill="#3D3D40"/>
</svg>
